<?xml version="1.0" encoding="utf-8"?>
<svg version="1.1" id="Capa_1" xmlns="http://www.w3.org/2000/svg" xmlns:xlink="http://www.w3.org/1999/xlink" x="0px" y="0px" viewBox="0 0 320 60" enable-background="new 0 0 320 60" xml:space="preserve">
<path fill-rule="evenodd" clip-rule="evenodd" fill="#28B0B0" d="M120.7,23.1c2.2,0,3.9,1.7,4,3.8l0,0.2v12.6 c0,7.1-4.9,12.1-12.9,12.1c-7.8,0-12.6-4.8-12.7-11.7l0-0.4V27.1c0-2.2,1.8-4.1,4.1-4.1c2.2,0,3.9,1.7,4,3.8l0,0.2v12.6 c0,3.1,1.7,4.8,4.6,4.8c2.9,0,4.6-1.6,4.8-4.5l0-0.3V27.1C116.6,24.9,118.4,23.1,120.7,23.1L120.7,23.1z"/>
<path fill-rule="evenodd" clip-rule="evenodd" fill="#FFCC11" d="M306.8,22.4c2.4,0,4.8,0.4,6.8,1.2c1.2,0.5,2.1,1.7,2.1,3 c0,2.1-2,3.7-4,3.1c-1.4-0.4-3-0.7-4.5-0.7c-2.5,0-4,0.9-4,2.2c0,1.5,1.6,2.1,4.8,3c0.1,0,0.2,0,0.3,0.1l0.6,0.2 c4.3,1.1,8.6,2.9,8.6,8.4c0,5.5-4.4,9.1-12,9.1c-3.2,0-6-0.6-8.3-1.7c-1.1-0.5-1.8-1.7-1.8-2.9c0-2.2,2.2-3.8,4.3-3 c1.6,0.6,3.4,1,5.4,1c2.8,0,4.5-0.9,4.5-2.4c0-1.7-2-2.3-5.7-3.3c-4.5-1.3-8.6-3.1-8.6-8.2C295.3,26.2,299.5,22.4,306.8,22.4 L306.8,22.4z"/>
<path fill-rule="evenodd" clip-rule="evenodd" fill="#6CBF50" d="M199.6,16.6c2.1,0,3.8,1.6,3.9,3.7l0,0.2v2.6h4.2 c1.8,0,3.3,1.5,3.3,3.3c0,1.8-1.4,3.2-3.1,3.3l-0.2,0h-4.2v10.1c0,3.4,2.2,4.9,5.1,4.9c1.9,0,3.5,1.6,3.5,3.5c0,1.8-1.4,3.5-5,3.5 c-7.3,0-11.3-4.2-11.5-11l0-0.4V29.8h-1.4c-1.8,0-3.3-1.5-3.3-3.3c0-1.8,1.4-3.2,3.1-3.3l0.2,0h1.5v-2.6 C195.7,18.3,197.5,16.6,199.6,16.6L199.6,16.6z"/>
<path fill-rule="evenodd" clip-rule="evenodd" fill="#00A3FF" d="M21.1,8.1c9.9,0,17.9,7.8,18.2,17.4l0,0.4V47 c0,2.3-1.8,4.1-4.1,4.1c-2.2,0-4-1.7-4.1-3.9l0-0.3V26c0-5.3-4.4-9.6-9.9-9.6c-5.3,0-9.7,4.1-9.9,9.2l0,0.3V47 c0,2.3-1.8,4.1-4.1,4.1c-2.2,0-4-1.7-4.1-3.9L3,47V26C3,16.1,11.1,8.1,21.1,8.1L21.1,8.1z"/>
<path fill-rule="evenodd" clip-rule="evenodd" fill="#AEC534" d="M250.8,23.1c2.2,0,3.9,1.7,4,3.8l0,0.2v20c0,2.2-1.8,4.1-4.1,4.1 c-2.2,0-3.9-1.7-4.1-3.8l0-0.2v-20C246.8,24.9,248.6,23.1,250.8,23.1L250.8,23.1z"/>
<path fill-rule="evenodd" clip-rule="evenodd" fill="#4CBB69" d="M177.7,22.4c6,0,9.7,3.6,9.8,9.6l0,0.4v14.7 c0,2.2-1.8,4.1-4.1,4.1c-2.2,0-3.9-1.7-4-3.8l0-0.2V34.7c0-3.4-1.5-5-4.5-5c-2.8,0-4.7,1.9-4.9,4.5l0,0.3v12.6 c0,2.2-1.8,4.1-4.1,4.1c-2.2,0-3.9-1.7-4.1-3.8l0-0.2v-21c0-2,1.6-3.5,3.5-3.5c1.9,0,3.4,1.5,3.5,3.3l0,0.2V27 C170.7,24.4,173.8,22.4,177.7,22.4L177.7,22.4z"/>
<path fill-rule="evenodd" clip-rule="evenodd" fill="#0FA8E1" d="M75.1,10c0.9,0,1.7,0.1,2.5,0.2c1.7,0.3,2.9,1.7,2.9,3.4 c0,2-1.6,3.5-3.6,3.5c-0.1,0-0.2,0-0.4,0c-2.8,0-4.4,1.1-4.5,3.6l0,0.3v2.2h4.1c1.8,0,3.3,1.5,3.3,3.3c0,1.8-1.4,3.2-3.1,3.3 l-0.2,0h-4v17.3c0,2.2-1.8,4.1-4.1,4.1c-2.2,0-3.9-1.7-4-3.8l0-0.2V29.8h-1.6c-1.8,0-3.3-1.5-3.3-3.3c0-1.8,1.4-3.2,3.1-3.3l0.2,0 h1.6v-2.8C64.1,15,67.9,10,75.1,10L75.1,10z"/>
<path fill-rule="evenodd" clip-rule="evenodd" fill="#1BABCA" d="M88.6,10.4c2.2,0,3.9,1.7,4,3.8l0,0.2v32.6c0,2.2-1.8,4.1-4.1,4.1 c-2.2,0-3.9-1.7-4.1-3.8l0-0.2V14.5C84.6,12.3,86.4,10.4,88.6,10.4L88.6,10.4z"/>
<path fill-rule="evenodd" clip-rule="evenodd" fill="#94C33F" d="M221.4,10.4c2.2,0,3.9,1.7,4.1,3.8l0,0.2v21.4l9.1-11.4 c0.7-0.9,1.8-1.4,2.9-1.4c3,0,4.7,3.4,3,5.8l-0.1,0.2l-6,7.4l6.4,8.4c2,2.6,0.1,6.3-3.1,6.3c-1.1,0-2.2-0.5-3-1.3l-0.2-0.2l-9-12 v9.5c0,2.2-1.8,4.1-4.1,4.1c-2.2,0-3.9-1.7-4-3.8l0-0.2V14.5C217.4,12.3,219.2,10.4,221.4,10.4L221.4,10.4z"/>
<path fill-rule="evenodd" clip-rule="evenodd" fill="#D3C824" d="M289.6,14.2c-0.1-2.1-1.9-3.8-4.1-3.8c-2.2,0-4.1,1.8-4.1,4.1 v12.7l-0.2-0.3c-1.8-2.7-4.9-4.5-8.5-4.5c-6.5,0-12.5,5.8-12.5,14.8c0,9,6.1,14.8,12.6,14.8c4,0,7.3-2.1,9.1-5v0.5l0,0.3 c0.1,2,1.8,3.6,3.8,3.6c2.1,0,3.8-1.7,3.8-3.8V14.5L289.6,14.2z M275,44.6c-3.8,0-6.6-3.1-6.6-7.5c0-4.3,2.8-7.5,6.6-7.5 c3.8,0,6.5,3.1,6.5,7.5C281.6,41.5,278.8,44.6,275,44.6z"/>
<path fill-rule="evenodd" clip-rule="evenodd" fill="#00A3FF" d="M22.9,30.7c1.9,0,3.4,1.5,3.4,3.4c0,1.9-1.5,3.4-3.4,3.4 c-2,0-3.4-1.5-3.4-3.4C19.4,32.2,20.9,30.7,22.9,30.7L22.9,30.7z"/>
<path fill-rule="evenodd" clip-rule="evenodd" fill="#3AB58D" d="M153.8,43.7c-0.4,0-0.8,0.1-1.1,0.2l-0.5,0.2 c-1.9,0.8-3.9,1.3-6,1.3c-4.3,0-7.8-2.1-8.8-6.1l16.2,0c1.5,0,4.8-1,2.3-8.4c-1.9-5.6-6.6-8.7-12.1-8.7c-7.8,0-14.1,5.9-14.1,14.9 c0,8.5,5.7,14.7,15.6,14.7c3.6,0,6.9-0.9,9.8-2.5c0.1-0.1,0.4-0.2,0.4-0.2c0.8-0.5,1.4-1.4,1.4-2.5C156.7,45,155.4,43.7,153.8,43.7 z M137.3,34.2c0.9-3.3,3.4-5.4,6.4-5.4c3,0,5.3,2.1,5.3,5.8h-11.8L137.3,34.2z"/>
<path fill-rule="evenodd" clip-rule="evenodd" fill="#AEC534" d="M250.8,10.4c2.4,0,4.4,1.9,4.4,4.4c0,2.5-2,4.4-4.4,4.4 c-2.5,0-4.5-1.9-4.5-4.4C246.3,12.4,248.3,10.4,250.8,10.4L250.8,10.4z"/>
</svg>